<svg id="Layer_1" enable-background="new 0 0 512 512" height="512" viewBox="0 0 512 512" width="512" xmlns="http://www.w3.org/2000/svg"><g><path d="m473.56 181.484c0 13.45-1.26 26.85-3.76 40.13l-28 74.87c-.65 1.16-1.32 2.31-2 3.47-17.66 30.1-42.2 59.19-72.93 86.46-51.95 46.1-103.21 70.9-105.36 71.93l-1.547.741c-2.505 1.2-5.42 1.2-7.925 0l-1.547-.741c-2.15-1.03-53.41-25.83-105.36-71.93-30.73-27.27-55.27-56.36-72.93-86.46-22.4-38.17-33.76-78.03-33.76-118.47 0-71.39 58.08-129.47 129.46-129.47 32.85 0 64.26 12.47 88.1 34.61 20.92-19.43 47.67-31.41 76.1-34.05 3.97-.37 7.98-.56 12-.56 71.379 0 129.459 58.08 129.459 129.47z" fill="#ff2261"/><path d="m344.1 52.014c-4.02 0-8.03.19-12 .56 57.58 2.06 103.9 59.31 103.9 129.4 0 40.44-9.4 80.3-27.93 118.47-14.61 30.1-34.92 59.19-60.34 86.46-42.98 46.1-84.44 70.41-86.22 71.44 2.15-1.03 53.41-25.83 105.36-71.93 30.73-27.27 55.27-56.36 72.93-86.46.68-1.16 1.35-2.31 2-3.47l28-74.87c2.5-13.28 3.76-26.68 3.76-40.13 0-71.39-58.08-129.47-129.46-129.47z" fill="#b7305d"/><path d="m422.826 254.495h-63.086c-2.374 0-4.608 1.125-6.023 3.032l-22.675 30.566-22.359-30.529c-1.658-2.264-4.441-3.414-7.217-2.977-2.773.436-5.07 2.385-5.953 5.05l-23.103 69.721-25.488-178.422c-.498-3.484-3.351-6.153-6.86-6.418-3.506-.276-6.731 1.946-7.746 5.315l-28.794 95.591-19.48-26.597c-1.408-1.922-3.646-3.061-6.028-3.068h-.022c-2.374 0-4.608 1.124-6.023 3.031l-26.488 35.706h-137.981c-4.143 0-7.5 3.358-7.5 7.5s3.357 7.5 7.5 7.5h141.753c2.375 0 4.608-1.125 6.023-3.032l22.675-30.565 22.36 30.529c1.681 2.295 4.514 3.442 7.318 2.96 2.803-.48 5.094-2.505 5.914-5.229l23.334-77.464 25.194 176.362c.492 3.446 3.291 6.1 6.758 6.41.225.02.449.03.671.03 3.205 0 6.092-2.051 7.115-5.141l28.56-86.192 19.776 27.002c1.408 1.922 3.646 3.061 6.027 3.068h.023c2.374 0 4.608-1.124 6.023-3.032l26.488-35.706h59.312c4.143 0 7.5-3.358 7.5-7.5s-3.355-7.501-7.498-7.501z" fill="#99f5d2"/><path d="m512 261.994c0 26.65-21.68 48.34-48.34 48.34-5.23 0-10.27-.84-14.99-2.39-19.34-6.32-33.34-24.53-33.34-45.95s14-39.63 33.34-45.95c4.72-1.55 9.76-2.39 14.99-2.39 26.66 0 48.34 21.69 48.34 48.34z" fill="#e4f4ff"/><path d="m512 261.994c0 26.65-21.68 48.34-48.34 48.34-5.23 0-10.27-.84-14.99-2.39 19.33-6.33 33.33-24.54 33.33-45.95s-14-39.62-33.33-45.95c4.72-1.55 9.76-2.39 14.99-2.39 26.66 0 48.34 21.69 48.34 48.34z" fill="#c0eaf7"/></g></svg>