<svg id="Layer_3" enable-background="new 0 0 64 64" height="512" viewBox="0 0 64 64" width="512" xmlns="http://www.w3.org/2000/svg"><g><path d="m10 27c0-2.206-1.794-4-4-4-.732 0-1.409.212-2 .556v-4.556h-2v8c0 2.206 1.794 4 4 4h5v-2h-1.556c.344-.591.556-1.268.556-2zm-6 0c0-1.103.897-2 2-2s2 .897 2 2-.897 2-2 2-2-.897-2-2z" fill="#db9b7c"/><path d="m43 43-.488.733c-.986 1.478-1.512 3.215-1.512 4.992v.275h-3l-.05-.1c-.625-1.25-.95-2.628-.95-4.025v-1.875" fill="#efbe9a"/><path d="m26 43v1.053c0 1.29.208 2.571.616 3.795l.384 1.152h-3l-.328-.219c-1.669-1.113-2.672-2.986-2.672-4.992v-1.789" fill="#efbe9a"/><path d="m18.768 41.92c-1.16 2.178-1.768 4.609-1.768 7.08h-4l-3-13v-2.554c0-5.849 3.107-11.259 8.159-14.206 2.515-1.467 5.375-2.24 8.287-2.24h6.387c4.084 0 8.142.658 12.017 1.95l.15.05.427.167c2.452-2.635 5.911-4.167 9.573-4.167l-2.848 7.121s.731.585.731.585c2.699 2.159 4.792 4.981 6.076 8.19l.041.104h3l-1 7-.098.074c-2.563 1.923-5.551 3.201-8.712 3.728l-1.19.198v7h-3l-.041-.041c-1.282-1.282-2.191-2.887-2.63-4.646l-.329-1.313s-.081-.363-.081-.363c-3.282.904-6.675 1.363-10.086 1.363h-3.667c-4.084 0-8.142-.658-12.017-1.95l-.149-.05s-.232-.08-.232-.08z" fill="#db9b7c"/><g fill="#efbe9a"><path d="m45 19-.15-.05c-3.875-1.292-7.932-1.95-12.017-1.95h-6.387c-2.912 0-5.772.773-8.287 2.24-5.052 2.948-8.159 8.357-8.159 14.206v2.554l.385 1.666c3.144.86 6.552 1.334 10.115 1.334 15.74 0 28.5-9.178 28.5-20.5 0-.661-.048-1.314-.133-1.959-1.275.678-2.444 1.555-3.441 2.626z"/><path d="m51 27c-1.654 0-3 1.346-3 3h2c0-.552.449-1 1-1s1 .448 1 1h2c0-1.654-1.346-3-3-3z"/></g></g></svg>