<svg height="512" viewBox="0 0 128 128" width="512" xmlns="http://www.w3.org/2000/svg"><g><path d="m20.612 70.167a1.75 1.75 0 0 1 -.372-3.46 11.661 11.661 0 0 0 3.241-1.178c-.078-.062-.157-.126-.235-.192-2.478-2.092-2.31-4.743-1.105-6.32a3.966 3.966 0 0 1 5.478-.832 4.853 4.853 0 0 1 1.857 5.05c-.006.031-.013.061-.019.092a4.021 4.021 0 0 0 1.007-.627 1.75 1.75 0 1 1 2.344 2.6 7.493 7.493 0 0 1 -5.6 1.823 13.263 13.263 0 0 1 -6.224 3 1.732 1.732 0 0 1 -.372.044zm4.673-9.229a.461.461 0 0 0 -.363.2c-.3.386-.072.969.582 1.521q.211.177.418.318a2.855 2.855 0 0 0 .12-.421 1.436 1.436 0 0 0 -.411-1.5.616.616 0 0 0 -.346-.118z" fill="#f66755"/><path d="m104.869 53.917h-2.169a24.412 24.412 0 0 0 -13.3-12.58 12.619 12.619 0 0 0 -12.433-10.5v8.841h-21.005a24.326 24.326 0 0 0 -24.326 24.322 24.309 24.309 0 0 0 11.625 20.748v11.864h11.339v-8.327c.452.025.908.041 1.367.041h23.086v8.286h11.333v-10.361a24.327 24.327 0 0 0 14.483-21.584 2.517 2.517 0 0 0 2.517-2.517v-5.717a2.516 2.516 0 0 0 -2.517-2.516z" fill="#f69c8f"/><path d="m93.011 55.708a1.749 1.749 0 0 1 -1.75-1.75.875.875 0 0 0 -1.75 0 1.75 1.75 0 0 1 -3.5 0 4.375 4.375 0 0 1 8.75 0 1.749 1.749 0 0 1 -1.75 1.75z" fill="#f66755"/><path d="m107.386 98.362h-86.772a1.75 1.75 0 0 1 0-3.5h86.772a1.75 1.75 0 0 1 0 3.5z" fill="#e6f0f0"/><path d="m55.827 83.313a19.613 19.613 0 0 1 -19.591-19.59 1.75 1.75 0 0 1 3.5 0 16.109 16.109 0 0 0 16.091 16.09 1.75 1.75 0 0 1 0 3.5z" fill="#fecccd"/></g></svg>